<svg id="Capa_1" enable-background="new 0 0 512 512" height="512" viewBox="0 0 512 512" width="512" xmlns="http://www.w3.org/2000/svg"><g><g><path d="m445.727 137.937c-5.235-12.324-26.13-15.24-46.669-6.514-6.327 2.688-11.879 6.169-16.385 10.057-.544-5.927-2.123-12.286-4.811-18.613-8.726-20.539-25.79-32.945-38.113-27.71-12.324 5.235-15.24 26.13-6.514 46.669s25.79 32.945 38.113 27.71c5.235 12.324 26.13 15.24 46.669 6.514 20.54-8.725 32.946-25.789 27.71-38.113z" fill="#9d66d6"/></g><g><path d="m219.634 264.081c0-21.268-7.307-39.965-18.357-50.779-1.922-1.881-1.482-5.134.895-6.392 4.199-2.223 8.715-3.438 13.422-3.438 22.316 0 40.406 27.136 40.406 60.61h-36.366z" fill="#a2f5c3"/></g><g><path d="m292.366 264.081c0-21.268 7.307-39.965 18.357-50.779 1.922-1.881 1.482-5.134-.895-6.392-4.199-2.223-8.715-3.438-13.422-3.438-22.316 0-40.407 27.136-40.407 60.61h36.367z" fill="#88f2a9"/></g><g><path d="m419.646 296.406h-327.293c-4.463 0-8.081-3.618-8.081-8.081v-16.163c0-4.463 3.618-8.081 8.081-8.081h327.293c4.463 0 8.081 3.618 8.081 8.081v16.163c0 4.463-3.618 8.081-8.081 8.081z" fill="#c27e4e"/></g><g><path d="m387.321 439.85h-262.642l-20.204-143.444h303.049z" fill="#c27e4e"/></g><g><path d="m104.475 296.406 3.699 26.264h246.138c12.279 0 21.718 10.862 20.006 23.021l-13.262 94.158h26.264l20.203-143.443z" fill="#b36d3c"/></g><g><path d="m389.996 504.5h-267.992c-4.418 0-8.324-2.871-9.642-7.089l-7.886-25.237h303.049l-7.886 25.237c-1.319 4.218-5.225 7.089-9.643 7.089z" fill="#6cbff8"/></g><g><path d="m429.748 472.175h-347.496c-4.463 0-8.081-3.618-8.081-8.081v-16.163c0-4.463 3.618-8.081 8.081-8.081h347.496c4.463 0 8.081 3.618 8.081 8.081v16.163c0 4.463-3.618 8.081-8.081 8.081z" fill="#91dafa"/></g><g><path d="m429.748 439.85h-26.264c4.463 0 8.081 3.618 8.081 8.081v16.163c0 4.463-3.618 8.081-8.081 8.081h26.264c4.463 0 8.081-3.618 8.081-8.081v-16.163c0-4.463-3.618-8.081-8.081-8.081z" fill="#75cff9"/></g><g><g><g><path d="m256 7.5c-13.276 0-24.152 16.395-25.169 37.22.937.482 1.873.982 2.803 1.519 19.326 11.158 29.339 29.995 22.366 42.074 13.947 0 25.254-18.091 25.254-40.407 0-22.315-11.307-40.406-25.254-40.406z" fill="#e175a5"/></g></g><g><g><path d="m186.014 47.907c-6.638 11.498 2.123 29.114 19.649 40.406.886-.571 1.787-1.131 2.717-1.667 19.326-11.158 40.646-10.411 47.62 1.667 6.974-12.079-3.04-30.916-22.366-42.074s-40.647-10.411-47.62 1.668z" fill="#de5791"/></g></g><g><g><path d="m186.014 128.72c6.638 11.498 26.275 12.719 44.818 3.187-.051-1.053-.085-2.113-.085-3.187 0-22.316 11.307-40.406 25.254-40.406-6.974-12.079-28.294-12.825-47.62-1.667-19.328 11.157-29.341 29.994-22.367 42.073z" fill="#e175a5"/></g></g><g><g><path d="m256 169.126c13.276 0 24.152-16.395 25.169-37.22-.937-.482-1.873-.982-2.803-1.519-19.326-11.158-29.34-29.995-22.366-42.074-13.947 0-25.254 18.091-25.254 40.407 0 22.315 11.306 40.406 25.254 40.406z" fill="#de5791"/></g></g><g><g><path d="m325.986 128.72c6.638-11.498-2.123-29.114-19.649-40.406-.886.571-1.787 1.131-2.717 1.667-19.326 11.158-40.646 10.411-47.62-1.667-6.974 12.079 3.04 30.916 22.366 42.074 19.326 11.157 40.646 10.41 47.62-1.668z" fill="#e175a5"/></g></g><g><g><path d="m325.986 47.907c-6.638-11.498-26.275-12.719-44.818-3.187.051 1.053.085 2.113.085 3.187 0 22.316-11.307 40.406-25.254 40.406 6.974 12.079 28.294 12.825 47.62 1.667 19.327-11.158 29.341-29.995 22.367-42.073z" fill="#de5791"/></g></g><g><circle cx="256" cy="88.313" fill="#e69642" r="17.173"/></g></g><g><ellipse cx="384.694" cy="136.475" fill="#ad7fdd" rx="40.407" ry="24.244" transform="matrix(.374 -.927 .927 .374 114.141 442.115)"/></g><g><path d="m66.272 137.937c5.235-12.324 26.13-15.24 46.669-6.514 6.327 2.688 11.879 6.169 16.385 10.057.544-5.927 2.123-12.286 4.811-18.613 8.726-20.539 25.79-32.945 38.113-27.71 12.324 5.235 15.24 26.13 6.514 46.669s-25.79 32.945-38.113 27.71c-5.235 12.324-26.13 15.24-46.669 6.514-20.539-8.725-32.945-25.789-27.71-38.113z" fill="#f3d332"/></g><g><ellipse cx="127.305" cy="136.475" fill="#f8e883" rx="24.244" ry="40.407" transform="matrix(.927 -.374 .374 .927 -41.831 57.576)"/></g><path d="m394.854 188.562c8.229 0 17.252-1.855 26.089-5.609 11.169-4.742 20.638-11.914 26.661-20.197 6.843-9.412 8.628-19.266 5.028-27.741-4.633-10.927-17.565-16.884-33.51-16.023-1.026-12.812-6.77-23.013-16.496-26.94-9.725-3.927-20.942-.572-30.575 7.939-10.88-11.688-24.322-16.381-35.238-11.732-4.12 1.75-7.542 4.625-10.164 8.431-2.245-2.91-4.89-5.719-7.887-8.364 15.201-13.385 21.238-31.147 13.719-44.17-7.451-12.905-25.812-16.666-45.09-10.191-3.99-19.856-16.354-33.965-31.391-33.965-14.902 0-27.341 14.02-31.371 33.953-19.191-6.472-37.591-2.82-45.111 10.203-7.451 12.906-1.529 30.689 13.719 44.145-3.001 2.642-5.65 5.453-7.902 8.366-2.62-3.795-6.035-6.662-10.145-8.408-10.921-4.648-24.363.044-35.243 11.732-9.632-8.508-20.849-11.862-30.574-7.94-9.725 3.926-15.469 14.128-16.495 26.94-15.945-.86-28.877 5.096-33.508 16.018-3.603 8.48-1.817 18.334 5.026 27.746 6.023 8.283 15.491 15.455 26.659 20.196 8.839 3.755 17.862 5.61 26.092 5.61 8.068 0 15.372-1.786 20.993-5.311 1.832 4.977 4.415 13.004 6.763 23.841-.779-.401-1.581-.784-2.418-1.137-3.816-1.609-8.215.182-9.824 3.998-1.609 3.817.182 8.216 3.999 9.824 7.746 3.265 11.381 10.593 12.339 12.834.797 7.318 1.362 15.318 1.574 23.969h-58.223c-8.591 0-15.58 6.989-15.58 15.58v16.17c0 8.591 6.989 15.58 15.58 15.58h5.608l18.09 128.439h-33.798c-8.591 0-15.58 6.989-15.58 15.58v16.16c0 8.591 6.989 15.58 15.58 15.58h16.714l6.238 19.979c2.311 7.39 9.062 12.353 16.798 12.353h207.36c4.142 0 7.5-3.357 7.5-7.5s-3.358-7.5-7.5-7.5h-207.36c-1.143 0-2.14-.735-2.481-1.825l-4.841-15.505h282.643l-4.839 15.501c-.342 1.094-1.34 1.829-2.482 1.829h-25.64c-4.142 0-7.5 3.357-7.5 7.5s3.358 7.5 7.5 7.5h25.64c7.736 0 14.487-4.963 16.799-12.354l6.236-19.976h16.714c8.591 0 15.58-6.989 15.58-15.58v-16.16c0-8.591-6.989-15.58-15.58-15.58h-33.798l18.09-128.439h5.608c8.591 0 15.58-6.989 15.58-15.58v-16.17c0-8.591-6.989-15.58-15.58-15.58h-58.221c.212-8.651.776-16.65 1.574-23.968.956-2.238 4.589-9.569 12.339-12.835 3.817-1.608 5.607-6.007 3.999-9.824-1.607-3.815-6.004-5.61-9.824-3.998-.838.353-1.64.736-2.418 1.137 2.348-10.837 4.93-18.864 6.763-23.841 5.621 3.524 12.924 5.31 20.993 5.31zm43.97-47.688c1.44 3.39.218 8.149-3.353 13.06-4.381 6.026-11.813 11.57-20.392 15.211-6.657 2.828-12.959 4.173-18.43 4.417 7.208-6.16 13.359-14.996 17.48-25.204 1.939-4.803 3.31-9.598 4.152-14.26 10.103-.937 18.366 1.642 20.543 6.776zm-44.92-35.501c1.078 0 2.119.188 3.107.588 8.886 3.587 9.023 22.378 3.209 36.781-3.488 8.64-8.898 16.169-14.844 20.658-4.847 3.659-9.584 4.969-13.001 3.588-3.415-1.378-5.917-5.609-6.866-11.606-1.163-7.359.17-16.535 3.657-25.175 5.169-12.802 16.126-24.834 24.738-24.834zm-57.878 8.417c.839-6.013 3.264-10.287 6.658-11.729 5.127-2.186 12.864 1.696 19.485 9.385-2.63 3.939-4.972 8.342-6.911 13.145-4.121 10.209-5.828 20.838-4.916 30.276-3.768-3.974-7.371-9.317-10.2-15.975-3.646-8.574-5.146-17.723-4.116-25.102zm-72.177 142.79c2.338-25.388 16.294-45.608 32.557-45.608 1.859 0 3.709.264 5.537.788-9.434 11.227-15.446 27.301-16.79 44.82zm-37.003 0c-1.344-17.519-7.356-33.594-16.79-44.82 1.827-.524 3.678-.788 5.537-.788 16.263 0 30.219 20.221 32.557 45.608zm29.154-94.954c-8.397 0-17.754-13.514-17.754-32.906 0-7.297 1.396-14.296 3.875-20.02 2.427 1.657 5.164 2.888 8.104 3.596 4.539 9.057 12.693 17.495 23.026 23.764-1.816 13.06-8.559 25.566-17.251 25.566zm9.673-73.313c0 5.333-4.339 9.672-9.673 9.672-5.333 0-9.673-4.339-9.673-9.672 0-5.334 4.339-9.673 9.673-9.673 5.333.001 9.673 4.339 9.673 9.673zm16.443 35.579c-6.317-3.647-11.678-8.354-15.396-13.36 2.693-1.304 5.109-3.088 7.149-5.233.891.053 1.788.089 2.697.089 9.417 0 19.746-2.831 29.414-8.136 7.987 6.224 14.231 14.796 14.732 21.85.004.418.014.838.027 1.258-.05 1.657-.442 3.214-1.249 4.611-4.199 7.27-20.581 8.616-37.374-1.079zm37.375-72.236c4.198 7.272-2.827 22.133-19.621 31.829-6.318 3.648-13.076 5.936-19.272 6.652.044-.603.075-1.21.075-1.824 0-2.428-.358-4.774-1.015-6.992 5.574-8.459 8.804-19.739 9.067-31.822 12.217-4.957 26.42-5.37 30.766 2.157zm-63.491-36.656c8.397 0 17.754 13.514 17.754 32.906 0 7.298-1.396 14.296-3.875 20.02-2.427-1.657-5.164-2.889-8.104-3.597-4.539-9.057-12.693-17.495-23.026-23.764 1.816-13.059 8.559-25.565 17.251-25.565zm-63.492 36.656c4.199-7.272 20.582-8.618 37.375 1.078 6.317 3.647 11.678 8.354 15.396 13.36-2.69 1.303-5.104 3.085-7.143 5.227-10.118-.603-21.51 2.241-32.113 8.058-10.401-8.102-17.861-20.195-13.515-27.723zm19.622 41.485c6.319-3.648 13.076-5.935 19.272-6.651-.044.603-.075 1.21-.075 1.824 0 2.428.358 4.773 1.015 6.991-5.574 8.459-8.804 19.739-9.067 31.822-12.218 4.957-26.42 5.371-30.767-2.157-4.198-7.273 2.828-22.133 19.622-31.829zm-42.809 8.921c3.389 1.44 5.814 5.715 6.653 11.728 1.03 7.379-.471 16.528-4.117 25.104-2.828 6.657-6.431 12-10.199 15.973.912-9.438-.795-20.067-4.916-30.276-1.939-4.803-4.281-9.206-6.911-13.145 6.62-7.686 14.356-11.564 19.49-9.384zm-54.333 3.899c8.887-3.592 22.03 9.842 27.845 24.246 3.487 8.64 4.82 17.815 3.657 25.175-.948 5.997-3.451 10.229-6.866 11.606-3.417 1.381-8.154.072-13-3.588-5.946-4.489-11.356-12.019-14.844-20.658-5.815-14.403-5.678-33.194 3.208-36.781zm-38.46 47.973c-3.57-4.91-4.792-9.67-3.351-13.064 2.175-5.129 10.437-7.707 20.541-6.771.842 4.661 2.213 9.456 4.152 14.259 4.121 10.208 10.272 19.044 17.48 25.205-5.471-.244-11.775-1.589-18.432-4.418-8.577-3.641-16.009-9.185-20.39-15.211zm87.35 76.545c.061-1.651.711-10.517 7.425-16.601 3.07-2.781 3.304-7.523.522-10.594-2.781-3.069-7.524-3.303-10.594-.521-.541.49-1.049.992-1.544 1.498-2.587-12.062-5.495-21.004-7.604-26.624 13.08-2.802 26.16-15.417 33.577-32.875.586-1.378 1.127-2.765 1.624-4.157 5.221 3.418 11.914 5.171 19.341 5.171 5.677 0 11.783-1.03 17.982-3.113 3.304 16.435 12.346 28.919 23.891 32.736v38.971c-8.858-11.89-20.439-18.398-32.907-18.398-5.833 0-11.53 1.45-16.93 4.31-3.214 1.701-5.446 4.875-5.97 8.489-.526 3.633.721 7.331 3.338 9.892 8.706 8.521 14.373 22.346 15.761 37.918h-46.215c-.215-9.441-.826-18.149-1.697-26.102zm256.352 41.681v16.17c0 .32-.26.58-.58.58h-59.68c-4.142 0-7.5 3.357-7.5 7.5s3.358 7.5 7.5 7.5h38.923l-18.09 128.439h-199.683c-4.142 0-7.5 3.357-7.5 7.5s3.358 7.5 7.5 7.5h248.63c.32 0 .58.26.58.58v16.16c0 .325-.255.58-.58.58h-347.5c-.325 0-.58-.255-.58-.58v-16.16c0-.32.26-.58.58-.58h63.87c4.142 0 7.5-3.357 7.5-7.5s-3.358-7.5-7.5-7.5h-14.924l-18.09-128.439h211.864c4.142 0 7.5-3.357 7.5-7.5s-3.358-7.5-7.5-7.5h-232.62c-.32 0-.58-.26-.58-.58v-16.17c0-.32.26-.58.58-.58h327.3c.319 0 .58.26.58.58zm-120.023-15.58c1.388-15.571 7.055-29.397 15.761-37.918 2.617-2.561 3.864-6.259 3.338-9.892-.524-3.614-2.755-6.788-5.968-8.488-5.401-2.86-11.098-4.311-16.932-4.311-12.468 0-24.049 6.509-32.907 18.398v-38.976c11.465-3.818 20.54-16.247 23.871-32.722 6.205 2.093 12.329 3.135 18.028 3.134 7.407 0 14.096-1.749 19.322-5.183.495 1.385 1.033 2.765 1.616 4.137 7.417 17.46 20.498 30.076 33.578 32.877-2.109 5.62-5.016 14.561-7.604 26.624-.494-.506-1.003-1.008-1.544-1.498-3.07-2.784-7.813-2.548-10.594.521-2.781 3.07-2.547 7.812.522 10.594 6.654 6.03 7.35 14.901 7.423 16.627-.87 7.946-1.48 16.646-1.696 26.075h-46.214z"/></g></svg>