<svg id="Capa_1" enable-background="new 0 0 512 512" height="512" viewBox="0 0 512 512" width="512" xmlns="http://www.w3.org/2000/svg"><g><g><g><path d="m155.369 166.621h-19.479c-14.599 0-26.433-11.835-26.433-26.433 0-14.599 11.835-26.433 26.433-26.433h19.479z" fill="#ffc5b2"/></g><g><path d="m356.584 113.755h19.479c14.599 0 26.433 11.835 26.433 26.433 0 14.599-11.835 26.433-26.433 26.433h-19.479z" fill="#ffc5b2"/></g><g><path d="m362.11 102.439v89.451c0 20.817-10.786 40.147-28.501 51.079l-18.927 11.68c-35.987 22.208-81.425 22.208-117.411 0l-18.927-11.68c-17.715-10.932-28.501-30.262-28.501-51.079v-89.451c0-52.433 42.505-94.939 94.939-94.939h22.39c52.432 0 94.938 42.505 94.938 94.939z" fill="#ffc5b2"/></g><g><path d="m219.231 255.729-18.927-11.68c-17.715-10.932-28.501-30.262-28.501-51.079v-89.451c0-52.433 42.505-94.938 94.939-94.938h14.789c-4.683-.71-9.478-1.08-14.359-1.08h-22.39c-52.433 0-94.939 42.505-94.939 94.939v89.451c0 20.817 10.786 40.147 28.501 51.079l18.927 11.68c19.615 12.104 42.037 17.595 64.206 16.505-14.728-2.192-29.117-7.324-42.246-15.426z" fill="#ffae92"/></g><g><g><g><path d="m454.598 482.133-8.339-69.973c-3.856-32.356-25.408-59.873-55.899-71.368l-85.017-32.052h-98.688l-85.017 32.052c-30.49 11.495-52.043 39.012-55.899 71.368l-8.339 69.973c-1.418 11.9 7.876 22.367 19.859 22.367h357.478c11.986 0 21.279-10.467 19.861-22.367z" fill="#b57f5f"/></g></g></g><g><g><g><path d="m201 310.872-79.361 29.919c-30.49 11.495-52.043 39.012-55.899 71.369l-8.339 69.973c-1.418 11.9 7.876 22.367 19.859 22.367h4.52c-.887-2.686-1.219-5.609-.859-8.627l8.339-69.973c3.856-32.356 25.408-59.873 55.899-71.369l66.281-24.988z" fill="#9f6e50"/></g></g></g><g><path d="m327.23 260.46v56.565l-20.621 12.837c-10.675 6.645-22.998 10.168-35.573 10.168h-30.163c-12.575 0-24.898-3.522-35.573-10.168l-20.621-12.837v-56.565z" fill="#fc8d94"/></g><g><path d="m204.24 260.46h-19.56v56.565l19.56 12.177z" fill="#fc7585"/></g><g><path d="m258.2 166.175h24.96l4.8 10.285h74.197v48.276c0 18.9-10.841 36.125-27.881 44.301l-65.325 31.322c-8.202 3.933-17.746 3.932-25.947-.003l-65.279-31.319c-17.041-8.176-27.881-25.401-27.881-44.301v-48.276h74.197l4.8-10.285h24.96z" fill="#f8f8ff"/></g><g><g><path d="m149.843 224.736c0 18.9 10.841 36.125 27.881 44.301l65.279 31.319c7.106 3.409 15.219 3.86 22.595 1.363-.211-.095-.425-.182-.635-.283l-65.279-31.319c-17.041-8.176-27.881-25.401-27.881-44.301v-49.356h-21.96z" fill="#ededf4"/></g></g><g><g><g><path d="m225.274 184.625h-24.12c-6.959 0-12.6-5.641-12.6-12.6v-11.7c0-6.959 5.641-12.6 12.6-12.6h24.12c6.959 0 12.6 5.641 12.6 12.6v11.7c0 6.959-5.641 12.6-12.6 12.6z" fill="#9fcaf4"/></g></g></g><g><g><g><path d="m310.798 184.625h-24.12c-6.959 0-12.6-5.641-12.6-12.6v-11.7c0-6.959 5.641-12.6 12.6-12.6h24.12c6.959 0 12.6 5.641 12.6 12.6v11.7c0 6.959-5.641 12.6-12.6 12.6z" fill="#9fcaf4"/></g></g></g><g><path d="m202.047 26.58v27.726c0 6.695-3.518 12.898-9.264 16.335l-5.952 3.559c-5.746 3.436-9.264 9.639-9.264 16.335v10.532c0 7.007-5.681 12.688-12.688 12.688h-17.503v-60.224c0-22.539 18.272-40.811 40.811-40.811 7.655 0 13.86 6.205 13.86 13.86z" fill="#f8f8ff"/></g><g><path d="m307.439 26.58v27.726c0 6.695 3.518 12.898 9.264 16.335l5.952 3.559c5.746 3.436 9.264 9.639 9.264 16.335v10.532c0 7.007 5.681 12.688 12.688 12.688h17.503v-60.224c0-22.539-18.272-40.811-40.811-40.811-7.655 0-13.86 6.205-13.86 13.86z" fill="#f8f8ff"/></g></g><g><path d="m462.046 481.246-8.339-69.973c-3.233-27.129-18.011-51.546-40.544-66.991-3.417-2.341-8.084-1.469-10.427 1.946-2.342 3.417-1.47 8.085 1.946 10.427 18.969 13 31.409 33.555 34.13 56.393l8.339 69.973c.429 3.597-.66 7.07-3.065 9.779s-5.725 4.201-9.348 4.201h-52.425l-6.382-75.135c-.351-4.126-3.972-7.184-8.108-6.838-4.127.351-7.189 3.98-6.838 8.108l6.275 73.864h-222.52l6.274-73.865c.351-4.127-2.711-7.757-6.838-8.108-4.133-.342-7.757 2.711-8.108 6.838l-6.382 75.135h-52.425c-3.623 0-6.942-1.492-9.348-4.201-2.405-2.709-3.494-6.182-3.065-9.778l8.339-69.973c3.539-29.692 23.118-54.69 51.097-65.238l59.575-22.46 17.477 10.879c11.876 7.393 25.547 11.301 39.537 11.301h30.163c13.989 0 27.661-3.908 39.536-11.301l17.511-10.901 51.736 19.505c3.875 1.459 8.203-.497 9.664-4.373s-.497-8.202-4.372-9.664l-50.381-18.993v-34.667l2.791-1.338c19.522-9.366 32.137-29.41 32.137-51.063v-48.275c0-.279-.018-.553-.047-.824v-1.516h6.454c18.711 0 33.933-15.222 33.933-33.933s-15.222-33.933-33.933-33.933h-6.454v-16.054c0-4.142-3.358-7.5-7.5-7.5s-7.5 3.358-7.5 7.5v16.054h-10.003c-2.861 0-5.188-2.327-5.188-5.188v-10.532c0-9.282-4.949-18.007-12.915-22.771l-5.952-3.56c-3.462-2.07-5.613-5.863-5.613-9.897v-27.726c0-3.507 2.853-6.36 6.36-6.36 18.368 0 33.311 14.943 33.311 33.311v9.707c0 4.142 3.358 7.5 7.5 7.5s7.5-3.358 7.5-7.5v-9.707c0-26.639-21.672-48.311-48.311-48.311-4.495 0-8.665 1.403-12.11 3.784-13.139-5.9-27.52-9.004-42.019-9.004h-22.39c-14.501 0-28.878 3.104-42.017 9.005-3.445-2.382-7.615-3.785-12.112-3.785-26.639 0-48.311 21.672-48.311 48.311v52.724h-6.453c-18.711 0-33.933 15.222-33.933 33.933s15.222 33.933 33.933 33.933h6.453v2.339 48.276c0 21.653 12.615 41.697 32.137 51.063l2.7 1.295v34.743l-58.186 21.937c-33.236 12.531-56.495 42.226-60.699 77.498l-8.339 69.974c-.929 7.798 1.528 15.64 6.743 21.513s12.71 9.241 20.564 9.241h357.477c7.854 0 15.35-3.368 20.564-9.241 5.215-5.873 7.673-13.714 6.744-21.513zm-236.991-150.852v-30.331l14.704 7.055c3.046 1.461 6.225 2.479 9.456 3.077v22.335h-8.341c-5.376 0-10.692-.73-15.819-2.136zm39.16 2.136v-22.626c2.723-.618 5.398-1.545 7.979-2.782l14.661-7.03v30.303c-5.127 1.406-10.442 2.135-15.818 2.135zm55.515-19.67-17.084 10.635c-.261.163-.527.315-.791.473v-31.068l17.875-8.571zm75.266-172.672c0 10.44-8.493 18.933-18.933 18.933h-6.454v-11.433h5.23c4.142 0 7.5-3.358 7.5-7.5s-3.358-7.5-7.5-7.5h-5.23v-11.433h6.454c10.44-.001 18.933 8.493 18.933 18.933zm-127.825-125.188c11.47 0 22.849 2.274 33.375 6.611-.383 1.598-.607 3.256-.607 4.969v27.726c0 9.282 4.949 18.008 12.915 22.771l5.952 3.56c3.463 2.071 5.614 5.864 5.614 9.898v10.532c0 11.132 9.056 20.188 20.188 20.188h10.003v47.706h-23.711v-8.635c0-11.083-9.017-20.1-20.1-20.1h-24.12c-10.526 0-19.173 8.138-20.017 18.45h-21.371c-.844-10.312-9.49-18.45-20.017-18.45h-24.12c-11.083 0-20.1 9.017-20.1 20.1v8.635h-23.711v-47.706h10.003c11.131 0 20.188-9.056 20.188-20.188v-10.533c0-4.034 2.151-7.827 5.614-9.897l5.952-3.56c7.966-4.764 12.915-13.489 12.915-22.771v-27.726c0-1.712-.224-3.369-.606-4.965 10.522-4.34 21.898-6.615 33.371-6.615zm48.727 145.325v11.7c0 2.812-2.288 5.1-5.1 5.1h-24.12c-2.812 0-5.1-2.288-5.1-5.1v-11.7c0-2.812 2.288-5.1 5.1-5.1h24.12c2.813 0 5.1 2.288 5.1 5.1zm-85.524 0v11.7c0 2.812-2.288 5.1-5.1 5.1h-24.12c-2.812 0-5.1-2.288-5.1-5.1v-11.7c0-2.812 2.288-5.1 5.1-5.1h24.12c2.812 0 5.1 2.288 5.1 5.1zm-73.031-106.794c0-18.368 14.943-33.311 33.311-33.311 3.507 0 6.36 2.853 6.36 6.36v27.726c0 4.035-2.151 7.827-5.614 9.897l-5.952 3.56c-7.966 4.764-12.915 13.489-12.915 22.771v10.532c0 2.861-2.327 5.188-5.188 5.188h-10.003v-52.723zm-21.454 105.59c-10.44 0-18.933-8.493-18.933-18.933s8.493-18.933 18.933-18.933h6.453v11.433h-5.23c-4.142 0-7.5 3.358-7.5 7.5s3.358 7.5 7.5 7.5h5.23v11.433zm21.454 65.615v-40.776h27.676c3.666 4.942 9.524 8.165 16.135 8.165h24.12c10.526 0 19.173-8.138 20.017-18.45h21.371c.844 10.312 9.49 18.45 20.017 18.45h24.12c6.612 0 12.47-3.223 16.135-8.165h27.723v40.776c0 15.918-9.273 30.653-23.624 37.538l-65.325 31.322c-6.184 2.964-13.277 2.965-19.461-.002l-65.279-31.319c-14.352-6.886-23.625-21.621-23.625-37.539zm52.712 68.131v31.101c-.263-.158-.53-.311-.791-.473l-17.084-10.635v-28.569z"/><circle cx="213.214" cy="122.477" r="8.42"/><path d="m197.294 96.612c0 4.142 3.358 7.5 7.5 7.5h29.678c4.142 0 7.5-3.358 7.5-7.5s-3.358-7.5-7.5-7.5h-29.678c-4.142 0-7.5 3.358-7.5 7.5z"/><circle cx="298.738" cy="122.477" r="8.42"/><path d="m277.48 104.112h29.678c4.142 0 7.5-3.358 7.5-7.5s-3.358-7.5-7.5-7.5h-29.678c-4.142 0-7.5 3.358-7.5 7.5s3.358 7.5 7.5 7.5z"/><path d="m274.057 234.818c-.994-4.021-5.061-6.475-9.081-5.481l-1.716.424c-4.765 1.178-9.802 1.18-14.57 0l-1.714-.424c-4.019-.995-8.086 1.459-9.081 5.481-.562 2.272-.022 4.557 1.279 6.295.876 2.031 2.634 3.66 4.936 4.279l1.579.424c3.373.907 6.842 1.36 10.311 1.36s6.939-.453 10.312-1.36l1.578-.424c2.364-.635 4.151-2.335 5.001-4.443 1.215-1.716 1.71-3.928 1.166-6.131z"/><path d="m201.056 221.88h28.012c5.52 0 10.915-1.542 15.603-4.459l6.088-3.79c3.205-1.994 7.187-1.994 10.392 0l6.089 3.79c4.687 2.917 10.082 4.458 15.602 4.458h28.013c4.142 0 7.5-3.358 7.5-7.5s-3.358-7.5-7.5-7.5h-28.013c-2.716 0-5.37-.758-7.675-2.193l-6.088-3.79c-8.095-5.038-18.15-5.038-26.245 0l-6.087 3.789c-2.306 1.435-4.96 2.194-7.676 2.194h-28.012c-4.142 0-7.5 3.358-7.5 7.5s3.355 7.501 7.497 7.501z"/></g></g></svg>