<svg id="Capa_1" enable-background="new 0 0 512 512" height="512" viewBox="0 0 512 512" width="512" xmlns="http://www.w3.org/2000/svg"><g><g><path d="m379.424 192.878s3.902 46.701 29.324 89.79c33.305 56.452-23.934 109.929-152.748 109.929s-186.053-53.477-152.747-109.929c25.422-43.089 29.324-89.79 29.324-89.79" fill="#9facba"/></g><g><path d="m294.57 338.342 88.234 23.529c35.698 9.519 60.536 41.849 60.536 78.794v63.835h-374.679v-63.835c0-36.945 24.838-69.275 60.536-78.794l88.234-23.529z" fill="#f8e883"/></g><g><path d="m382.803 361.871-6.953-1.854c20.139 15.058 32.738 39.015 32.738 65.32v79.163h34.751v-63.835c0-36.945-24.838-69.275-60.536-78.794z" fill="#f3d332"/></g><g><path d="m294.57 338.342v-47.386h-77.14v47.386l-51.494 13.732c6.641 43.74 44.498 77.367 90.064 77.367s83.423-33.626 90.064-77.367z" fill="#fed2a4"/></g><g><path d="m217.43 316.042c12.011 4.502 25.007 6.971 38.57 6.971s26.559-2.469 38.57-6.971v-25.087h-77.14z" fill="#ffbd86"/></g><g><path d="m167.84 121.248v91.566c0 48.689 39.47 88.16 88.16 88.16s88.16-39.47 88.16-88.16v-91.566z" fill="#fed2a4"/></g><g><path d="m344.16 212.814v-91.566h-20.938v114.608c0 17.204-4.946 33.245-13.467 46.812 20.916-16.12 34.405-41.405 34.405-69.854z" fill="#ffbd86"/></g><g><path d="m379.424 130.923v26.691h-35.264v52.896l-39.672-78.242-20.846-5.629c-17.052-4.604-35.26.428-47.527 13.137l-68.275 70.734v-52.896h-35.264v-26.691c0-68.164 55.259-123.423 123.424-123.423 68.165 0 123.424 55.259 123.424 123.423z" fill="#d9e7ec"/></g><g><path d="m305.017 17.626c24.084 22.524 39.142 54.579 39.142 90.156v49.833h35.264v-26.691c.001-50.747-30.629-94.332-74.406-113.298z" fill="#c5d3dd"/></g><g><path d="m361.792 210.51h-17.632v-52.896h17.632c9.738 0 17.632 7.894 17.632 17.632v17.632c0 9.738-7.895 17.632-17.632 17.632z" fill="#fed2a4"/></g><g><path d="m150.208 210.51h17.632v-52.896h-17.632c-9.738 0-17.632 7.894-17.632 17.632v17.632c0 9.738 7.895 17.632 17.632 17.632z" fill="#fed2a4"/></g><g><path d="m90.338 392.8c2.019 0 4.032-.811 5.511-2.41 9.512-10.294 21.714-17.65 35.284-21.272l29-7.734c4.781 19.856 15.707 37.891 31.323 51.441 17.923 15.552 40.846 24.116 64.544 24.116s46.621-8.564 64.544-24.116c15.616-13.55 26.542-31.586 31.323-51.441l29.001 7.734c32.098 8.556 54.699 37.729 54.962 70.942.033 4.122 3.384 7.44 7.499 7.44h.061c4.142-.033 7.473-3.417 7.44-7.56-.267-33.681-19.634-63.905-48.842-78.724 25.719-22.521 30.816-52.535 13.218-82.36-23.176-39.279-27.891-82.349-28.282-86.311l-.004-61.625c0-34.968-13.618-67.845-38.347-92.572-24.727-24.73-57.604-38.348-92.573-38.348-44.146 0-85.029 22.03-109.361 58.931-2.28 3.458-1.325 8.11 2.133 10.391 3.458 2.279 8.109 1.326 10.391-2.133 21.546-32.679 57.747-52.189 96.837-52.189 30.962 0 60.072 12.059 81.966 33.954 21.896 21.895 33.954 51.005 33.954 81.966v21.333c-3.101-1.371-6.525-2.139-10.128-2.139h-17.633c-4.143 0-7.5 3.357-7.5 7.5v.101 21.418l-23.022-45.406.511-.511c8.201-8.202 12.718-19.106 12.718-30.704v-14.892c0-4.143-3.357-7.5-7.5-7.5s-7.5 3.357-7.5 7.5v14.892c0 7.592-2.957 14.729-8.325 20.098l-1.287 1.287-16.656-4.497c-19.688-5.317-40.715.497-54.878 15.168l-55.378 57.372v-34.225-.101c0-4.143-3.357-7.5-7.5-7.5h-17.633c-3.603 0-7.027.768-10.128 2.139v-21.333c0-11.606 1.713-23.072 5.09-34.08 1.215-3.96-1.01-8.155-4.97-9.37-3.959-1.214-8.155 1.01-9.37 4.97-3.815 12.435-5.75 25.382-5.75 38.48l-.004 61.633c-.388 3.979-5.043 46.915-28.282 86.303-17.597 29.823-12.502 59.834 13.213 82.355-9.415 4.761-17.942 11.171-25.176 18.998-2.811 3.042-2.623 7.787.419 10.599 1.441 1.333 3.267 1.992 5.087 1.992zm220.375 8.694c-15.195 13.186-34.626 20.446-54.713 20.446s-39.518-7.261-54.713-20.446c-13.344-11.578-22.644-27.009-26.651-43.979l44.726-11.928c3.283-.876 5.567-3.85 5.567-7.247v-35.05c9.747 3.356 20.198 5.183 31.07 5.183s21.324-1.827 31.07-5.183v35.05c0 3.397 2.284 6.371 5.567 7.247l44.726 11.928c-4.005 16.97-13.305 32.401-26.649 43.979zm75.093-46.56c-.359-.101-.713-.214-1.074-.311l-82.662-22.045v-35.953c28.108-15.512 47.625-44.75 49.446-78.615h10.275c4.912 0 9.495-1.422 13.371-3.868 3.714 18.173 11.451 45.772 27.125 72.337 15.209 25.775 9.332 49.974-16.481 68.455zm-13.882-179.688v17.632c0 5.587-4.545 10.132-10.132 10.132h-10.133v-37.896h10.133c5.587 0 10.132 4.545 10.132 10.132zm-130.412-30.261c10.367-10.742 25.761-14.998 40.175-11.105l17.623 4.759 37.35 73.664v.512c0 44.476-36.184 80.659-80.659 80.659-44.239 0-80.259-35.803-80.641-79.953zm-91.304 20.129h10.133v37.896h-10.133c-5.587 0-10.132-4.545-10.132-10.132v-17.632c0-5.587 4.545-10.132 10.132-10.132zm-40.496 121.365c15.675-26.567 23.411-54.165 27.125-72.338 3.876 2.446 8.459 3.868 13.371 3.868h10.275c1.822 33.865 21.338 63.103 49.446 78.615v35.953l-82.664 22.046c-.361.096-.716.207-1.075.307-25.81-18.479-31.685-42.677-16.478-68.451z"/><path d="m443.34 467.5c-4.143 0-7.5 3.357-7.5 7.5v22h-53.324v-22.254c0-4.143-3.357-7.5-7.5-7.5s-7.5 3.357-7.5 7.5v22.254h-223.032v-22.254c0-4.143-3.357-7.5-7.5-7.5s-7.5 3.357-7.5 7.5v22.254h-53.324v-56.34c0-7.867 1.236-15.622 3.676-23.051 1.292-3.936-.851-8.174-4.786-9.466-3.939-1.293-8.174.852-9.466 4.786-2.936 8.941-4.424 18.271-4.424 27.73v63.84c0 4.143 3.357 7.5 7.5 7.5h374.68c4.143 0 7.5-3.357 7.5-7.5v-29.499c0-4.143-3.358-7.5-7.5-7.5z"/></g></g></svg>